<svg width="760" height="420" viewBox="0 0 760 420" fill="none" xmlns="http://www.w3.org/2000/svg">
  <rect width="760" height="420" rx="24" fill="#FFF8F1"/>
  <rect x="34" y="38" width="690" height="344" rx="18" fill="#FFFDFB" stroke="#E9DDCF" stroke-width="2"/>
  <rect x="68" y="74" width="296" height="42" rx="10" fill="#F4E9DF"/>
  <rect x="386" y="74" width="304" height="42" rx="10" fill="#F7EFE8"/>
  <rect x="68" y="132" width="622" height="12" rx="6" fill="#F1E4D7"/>
  <rect x="68" y="160" width="280" height="178" rx="14" fill="#FDF6EE" stroke="#E8DACA"/>
  <rect x="366" y="160" width="324" height="86" rx="14" fill="#FFF5EA" stroke="#E8DACA"/>
  <rect x="366" y="252" width="324" height="86" rx="14" fill="#FFF5EA" stroke="#E8DACA"/>
  <circle cx="123" cy="216" r="36" fill="#AD3D2F" fill-opacity="0.15"/>
  <path d="M123 196V236M103 216H143" stroke="#AD3D2F" stroke-width="8" stroke-linecap="round"/>
  <rect x="172" y="194" width="148" height="10" rx="5" fill="#D8C5B2"/>
  <rect x="172" y="214" width="108" height="10" rx="5" fill="#E7D7C6"/>
  <rect x="172" y="234" width="136" height="10" rx="5" fill="#E7D7C6"/>
  <circle cx="402" cy="202" r="16" fill="#1E6F57" fill-opacity="0.2"/>
  <rect x="428" y="191" width="228" height="10" rx="5" fill="#DCCDBD"/>
  <rect x="428" y="211" width="184" height="10" rx="5" fill="#E9DCCE"/>
  <circle cx="402" cy="294" r="16" fill="#AD3D2F" fill-opacity="0.2"/>
  <rect x="428" y="283" width="228" height="10" rx="5" fill="#DCCDBD"/>
  <rect x="428" y="303" width="184" height="10" rx="5" fill="#E9DCCE"/>
  <text x="68" y="360" fill="#8B7A67" font-size="14" font-family="Segoe UI, sans-serif">Patient care operations overview</text>
</svg>
