<svg width="760" height="420" viewBox="0 0 760 420" fill="none" xmlns="http://www.w3.org/2000/svg">
  <rect width="760" height="420" rx="24" fill="#FFF8F1"/>
  <rect x="34" y="38" width="690" height="344" rx="18" fill="#FFFDFB" stroke="#E9DDCF" stroke-width="2"/>
  <rect x="68" y="74" width="622" height="50" rx="10" fill="#F7EFE8"/>
  <rect x="68" y="144" width="198" height="194" rx="14" fill="#FDF6EE" stroke="#E8DACA"/>
  <rect x="280" y="144" width="198" height="194" rx="14" fill="#FFF5EA" stroke="#E8DACA"/>
  <rect x="492" y="144" width="198" height="194" rx="14" fill="#FDF6EE" stroke="#E8DACA"/>
  <rect x="98" y="190" width="138" height="88" rx="10" fill="#AD3D2F" fill-opacity="0.14"/>
  <path d="M111 236H223" stroke="#AD3D2F" stroke-width="7" stroke-linecap="round"/>
  <rect x="315" y="176" width="128" height="14" rx="7" fill="#D8C5B2"/>
  <rect x="315" y="202" width="152" height="14" rx="7" fill="#E7D7C6"/>
  <rect x="315" y="228" width="110" height="14" rx="7" fill="#E7D7C6"/>
  <circle cx="545" cy="206" r="22" fill="#1E6F57" fill-opacity="0.18"/>
  <path d="M533 206L542 215L558 197" stroke="#1E6F57" stroke-width="6" stroke-linecap="round" stroke-linejoin="round"/>
  <rect x="68" y="92" width="340" height="14" rx="7" fill="#D6C4B2"/>
  <text x="68" y="365" fill="#8B7A67" font-size="14" font-family="Segoe UI, sans-serif">Reservations, room allocation, and guest service overview</text>
</svg>
